<svg xmlns="http://www.w3.org/2000/svg" width="26" height="24" viewBox="0 0 26 24">
    <g fill="#FFF" fill-rule="nonzero">
        <path d="M25.535 19.21c0 .59-.476 1.065-1.064 1.065l-10.64 3.191a1.063 1.063 0 0 1-1.064-1.063v-10.64c0-.59.476-1.064 1.064-1.064l10.64-3.192c.588 0 1.064.475 1.064 1.064v10.64zM11.703 22.403c0 .588-.475 1.063-1.064 1.063l-9.575-3.191A1.063 1.063 0 0 1 0 19.21V8.57c0-.59.476-1.064 1.064-1.064l9.575 3.192c.589 0 1.064.475 1.064 1.064v10.64zM25.535 4.865c0 .515-1.063.87-1.063.87L13.832 9.28s-.903.355-1.607.355c-.705 0-1.559-.376-1.559-.376l-9.57-3.48S0 5.429 0 4.865c0-.565 1.097-.948 1.097-.948L10.67.437S11.662.06 12.254.06c.595 0 1.581.357 1.581.357L24.466 3.96c.002 0 1.069.39 1.069.905z"/>
    </g>
</svg>
