<svg width="24px" height="23px" viewBox="0 0 24 23" version="1.1" xmlns="http://www.w3.org/2000/svg" xmlns:xlink="http://www.w3.org/1999/xlink">
  <g stroke="none" stroke-width="1" fill-rule="nonzero" fill="#434343">
    <path d="M23.896,13.951 L21.743,13.338 C21.754,13.148 21.766,12.957 21.766,12.766 C21.766,7.68 18.15,3.268 13.165,2.276 L12.774,4.238 C16.825,5.045 19.764,8.633 19.764,12.766 C19.764,12.766 19.764,12.772 19.764,12.777 L17.819,12.221 C17.421,12.445 17.277,12.949 17.5,13.347 L19.271,16.528 C19.494,16.925 19.996,17.069 20.396,16.847 L23.576,15.076 C23.975,14.854 24.117,14.351 23.896,13.951 Z" id="Shape"></path>
    <path d="M2.199,12.35 C2.199,8.958 4.182,5.932 7.134,4.51 L8.05,6.899 C8.501,7.098 9.029,6.897 9.231,6.447 L10.831,2.858 C11.03,2.408 10.828,1.879 10.379,1.678 L6.789,0.078 C6.338,-0.123 5.81,0.08 5.608,0.53 L6.419,2.64 C2.71,4.361 0.201,8.121 0.201,12.348 C0.201,13.535 0.404,14.719 0.805,15.869 L2.695,15.211 C2.365,14.274 2.199,13.311 2.199,12.35 Z" id="Shape"></path>
    <path d="M10.649,20.967 C9.085,20.967 7.559,20.533 6.23,19.744 L7.916,18.033 C7.911,17.539 7.51,17.141 7.015,17.145 L3.087,17.174 C2.593,17.178 2.198,17.58 2.2,18.074 L2.226,22.004 C2.232,22.498 2.633,22.895 3.128,22.891 L4.798,21.197 C6.527,22.332 8.555,22.967 10.648,22.967 C13.659,22.967 16.549,21.678 18.583,19.432 L17.099,18.09 C15.445,19.918 13.095,20.967 10.649,20.967 Z" id="Shape"></path>
  </g>
</svg>
