<svg xmlns="http://www.w3.org/2000/svg" width="24" height="24" viewBox="0 0 24 24">
    <path fill="#FFF" fill-rule="nonzero" d="M20.857 13.846H24l-.002-3.692h-3.129a8.986 8.986 0 0 0-1.292-3.121L21.79 4.82l-2.612-2.61-2.209 2.208a8.96 8.96 0 0 0-3.123-1.298V0h-3.694v3.13a8.963 8.963 0 0 0-3.107 1.303L4.82 2.208 2.208 4.82l2.24 2.24a8.935 8.935 0 0 0-1.274 3.093H0v3.693h3.184a8.948 8.948 0 0 0 1.279 3.077L2.21 19.177l2.612 2.612 2.249-2.25a8.954 8.954 0 0 0 3.083 1.287v3.172h3.694v-3.16a8.973 8.973 0 0 0 3.097-1.284l2.237 2.236 2.61-2.612-2.229-2.229a8.988 8.988 0 0 0 1.294-3.103zm-8.836 3.179a5.042 5.042 0 0 1-5.039-5.046 5.042 5.042 0 0 1 5.04-5.046 5.042 5.042 0 0 1 5.039 5.046 5.045 5.045 0 0 1-5.04 5.046z" />
</svg>
